<svg xmlns="http://www.w3.org/2000/svg" viewBox="0 0 512 640" x="0px" y="0px"><path d="M32,96H80A16.01582,16.01582,0,0,0,96,80V32H384v72h16V32a16.01582,16.01582,0,0,0-16-16H91.3125A15.89068,15.89068,0,0,0,80,20.6875L20.6875,80A15.89068,15.89068,0,0,0,16,91.3125V480a16.01582,16.01582,0,0,0,16,16H200V480H32ZM43.3125,80,80,43.3125V80Z"/><rect x="160" y="56" width="64" height="16"/><rect x="240" y="56" width="32" height="16"/><rect x="136" y="88" width="64" height="16"/><rect x="216" y="88" width="24" height="16"/><rect x="256" y="88" width="40" height="16"/><path d="M488,176H456a8.00039,8.00039,0,0,0-8,8v48H424V203.3125l5.65625-5.65625A8.001,8.001,0,0,0,432,192V176a8.00039,8.00039,0,0,0-8-8V144a8.00039,8.00039,0,0,0-8-8H368a8.00039,8.00039,0,0,0-8,8v24a8.00039,8.00039,0,0,0-8,8v16a8.001,8.001,0,0,0,2.34375,5.65625L360,203.3125V232H328V203.3125l5.65625-5.65625A8.001,8.001,0,0,0,336,192V176a8.00039,8.00039,0,0,0-8-8V144a8.00039,8.00039,0,0,0-8-8H272a8.00039,8.00039,0,0,0-8,8v24a8.00039,8.00039,0,0,0-8,8v16a8.001,8.001,0,0,0,2.34375,5.65625L264,203.3125V232H232a8.00039,8.00039,0,0,0-8,8v32a8.00039,8.00039,0,0,0,8,8h32V432a31.63057,31.63057,0,0,0,4.45166,16H232a8.00039,8.00039,0,0,0-8,8v32a8.00039,8.00039,0,0,0,8,8H488a8.00039,8.00039,0,0,0,8-8V184A8.00039,8.00039,0,0,0,488,176ZM328,280h32V432a31.63057,31.63057,0,0,0,4.45166,16H323.54834A31.63057,31.63057,0,0,0,328,432Zm48,152V280h32V432a16,16,0,0,1-32,0Zm48,0V280h24V448H419.54834A31.63057,31.63057,0,0,0,424,432ZM376,152h32v16H376Zm-2.34375,42.34375L368,188.6875V184h48v4.6875l-5.65625,5.65625A8.001,8.001,0,0,0,408,200v32H376V200A8.001,8.001,0,0,0,373.65625,194.34375ZM280,152h32v16H280Zm-2.34375,42.34375L272,188.6875V184h48v4.6875l-5.65625,5.65625A8.001,8.001,0,0,0,312,200v32H280V200A8.001,8.001,0,0,0,277.65625,194.34375ZM240,248H448v16H240Zm40,184V280h32V432a16,16,0,0,1-32,0Zm-40,32H448v16H240Zm240,16H464V192h16Z"/><path d="M192,136H160a8.00039,8.00039,0,0,0-8,8v16H128a8.00039,8.00039,0,0,0-8,8v16H96a8.00039,8.00039,0,0,0-8,8v16H64a8.00039,8.00039,0,0,0-8,8v32a8.00039,8.00039,0,0,0,8,8H192a8.00039,8.00039,0,0,0,8-8V144A8.00039,8.00039,0,0,0,192,136ZM72,224H88v16H72Zm32-24h16v40H104Zm32-24h16v64H136Zm48,64H168V152h16Z"/><rect x="168" y="272" width="16" height="16"/><rect x="136" y="272" width="16" height="16"/><rect x="104" y="272" width="16" height="16"/><rect x="72" y="272" width="16" height="16"/><rect x="112" y="320" width="24" height="16"/><rect x="152" y="320" width="40" height="16"/><rect x="64" y="352" width="56" height="16"/><rect x="136" y="352" width="24" height="16"/><rect x="176" y="352" width="16" height="16"/><rect x="64" y="384" width="40" height="16"/><rect x="120" y="384" width="16" height="16"/><rect x="152" y="384" width="40" height="16"/><rect x="64" y="416" width="24" height="16"/><rect x="104" y="416" width="40" height="16"/><rect x="160" y="416" width="32" height="16"/><text x="0" y="527" fill="#000000" font-size="5px" font-weight="bold" font-family="'Helvetica Neue', Helvetica, Arial-Unicode, Arial, Sans-serif">Created by ArmOkay</text><text x="0" y="532" fill="#000000" font-size="5px" font-weight="bold" font-family="'Helvetica Neue', Helvetica, Arial-Unicode, Arial, Sans-serif">from the Noun Project</text></svg>